<?xml version="1.0" standalone="no"?><!DOCTYPE svg PUBLIC "-//W3C//DTD SVG 1.1//EN" "http://www.w3.org/Graphics/SVG/1.1/DTD/svg11.dtd"><svg xmlns:xlink="http://www.w3.org/1999/xlink" version="1.1" style="font-family:'lucida grande', 'lucida sans unicode', arial, helvetica, sans-serif;font-size:12px;" xmlns="http://www.w3.org/2000/svg" width="600" height="400"><desc>Created with Highcharts 4.2.7</desc><defs><clipPath id="highcharts-5"><rect x="1" y="1" width="297" height="420"></rect></clipPath></defs><rect x="168" y="10" width="422" height="299" fill="#ffffff"></rect><path fill="rgb(255, 255, 255)" fill-opacity=" .5" d="M 167.5 10 L 167.5 309 227.5 309 227.5 10"></path><path fill="rgb(255, 255, 255)" fill-opacity=" .5" d="M 288.5 10 L 288.5 309 348.5 309 348.5 10"></path><path fill="rgb(255, 255, 255)" fill-opacity=" .5" d="M 408.5 10 L 408.5 309 468.5 309 468.5 10"></path><path fill="rgb(255, 255, 255)" fill-opacity=" .5" d="M 529.5 10 L 529.5 309 589.5 309 589.5 10"></path><g class="highcharts-grid"></g><g class="highcharts-grid"><path fill="none" d="M 167.5 10 L 167.5 309" stroke="#C0C0C0" stroke-width="1" opacity="1"></path><path fill="none" d="M 227.5 10 L 227.5 309" stroke="#C0C0C0" stroke-width="1" opacity="1"></path><path fill="none" d="M 288.5 10 L 288.5 309" stroke="#C0C0C0" stroke-width="1" opacity="1"></path><path fill="none" d="M 348.5 10 L 348.5 309" stroke="#C0C0C0" stroke-width="1" opacity="1"></path><path fill="none" d="M 408.5 10 L 408.5 309" stroke="#C0C0C0" stroke-width="1" opacity="1"></path><path fill="none" d="M 468.5 10 L 468.5 309" stroke="#C0C0C0" stroke-width="1" opacity="1"></path><path fill="none" d="M 529.5 10 L 529.5 309" stroke="#C0C0C0" stroke-width="1" opacity="1"></path><path fill="none" d="M 590.5 10 L 590.5 309" stroke="#C0C0C0" stroke-width="1" opacity="1"></path></g><rect x="168" y="10" width="422" height="299" stroke="#026FC1" stroke-width="2" fill="none"></rect><g class="highcharts-axis"><path fill="none" d="M 168 85.5 L 158 85.5" stroke="#C0D0E0" stroke-width="1" opacity="1"></path><path fill="none" d="M 168 160.5 L 158 160.5" stroke="#C0D0E0" stroke-width="1" opacity="1"></path><path fill="none" d="M 168 234.5 L 158 234.5" stroke="#C0D0E0" stroke-width="1" opacity="1"></path><path fill="none" d="M 168 309.5 L 158 309.5" stroke="#C0D0E0" stroke-width="1" opacity="1"></path><path fill="none" d="M 168 9.5 L 158 9.5" stroke="#C0D0E0" stroke-width="1" opacity="1"></path><path fill="none" d="M 167.5 10 L 167.5 309" stroke="#C0D0E0" stroke-width="1"></path></g><g class="highcharts-axis"><path fill="none" d="M 167.5 309 L 167.5 319" stroke="#C0D0E0" stroke-width="1" opacity="1"></path><path fill="none" d="M 227.5 309 L 227.5 319" stroke="#C0D0E0" stroke-width="1" opacity="1"></path><path fill="none" d="M 288.5 309 L 288.5 319" stroke="#C0D0E0" stroke-width="1" opacity="1"></path><path fill="none" d="M 348.5 309 L 348.5 319" stroke="#C0D0E0" stroke-width="1" opacity="1"></path><path fill="none" d="M 408.5 309 L 408.5 319" stroke="#C0D0E0" stroke-width="1" opacity="1"></path><path fill="none" d="M 468.5 309 L 468.5 319" stroke="#C0D0E0" stroke-width="1" opacity="1"></path><path fill="none" d="M 529.5 309 L 529.5 319" stroke="#C0D0E0" stroke-width="1" opacity="1"></path><path fill="none" d="M 590.5 309 L 590.5 319" stroke="#C0D0E0" stroke-width="1" opacity="1"></path><text x="379" text-anchor="middle" transform="translate(0,0)" class=" highcharts-yaxis-title" style="color:#000000;font-size:10px;font-family:'arial', sans-serif;text-transform:none;font-weight:normal;fill:#000000;" y="343">F-macro</text></g><g class="highcharts-series-group"><g class="highcharts-series highcharts-series-0" transform="translate(590,309) rotate(90) scale(-1,1) scale(1 1)" width="422" height="299" clip-path="url(#highcharts-5)"><rect x="243.5" y="229.5" width="36" height="193" stroke="#FFFFFF" stroke-width="1" fill="#b43232" rx="0" ry="0"></rect><rect x="168.5" y="90.5" width="36" height="332" stroke="#FFFFFF" stroke-width="1" fill="#ffec00" rx="0" ry="0"></rect><rect x="93.5" y="39.5" width="36" height="383" stroke="#FFFFFF" stroke-width="1" fill="#2bdf00" rx="0" ry="0"></rect><rect x="18.5" y="31.5" width="36" height="391" stroke="#FFFFFF" stroke-width="1" fill="#0013ff" rx="0" ry="0"></rect></g><g class="highcharts-markers highcharts-series-0" transform="translate(590,309) rotate(90) scale(-1,1) scale(1 1)" width="422" height="299" clip-path="none"></g><g class="highcharts-series highcharts-series-1" transform="translate(590,309) rotate(90) scale(-1,1) scale(1 1)" width="422" height="299" clip-path="url(#highcharts-5)"></g><g class="highcharts-markers highcharts-series-1" transform="translate(590,309) rotate(90) scale(-1,1) scale(1 1)" width="422" height="299" clip-path="none"></g></g><g class="highcharts-data-labels highcharts-series-0" transform="translate(168,10) scale(1 1)" opacity="1"><g style="cursor:pointer;" transform="translate(193,27)"><text x="5" style="font-size:10px;font-weight:bold;font-family:'arial', sans-serif;color:#000000;text-shadow:0 0 6px #ffffff, 0 0 3px #ffffff;fill:#000000;text-rendering:geometricprecision;" y="15"><tspan>0.32</tspan></text></g><g style="cursor:pointer;" transform="translate(332,102)"><text x="5" style="font-size:10px;font-weight:bold;font-family:'arial', sans-serif;color:#000000;text-shadow:0 0 6px #ffffff, 0 0 3px #ffffff;fill:#000000;text-rendering:geometricprecision;" y="15"><tspan>0.55</tspan></text></g><g style="cursor:pointer;" transform="translate(383,177)"><text x="5" style="font-size:10px;font-weight:bold;font-family:'arial', sans-serif;color:#000000;text-shadow:0 0 6px #ffffff, 0 0 3px #ffffff;fill:#000000;text-rendering:geometricprecision;" y="15"><tspan>0.635</tspan></text></g><g style="cursor:pointer;" transform="translate(344,252)"><text x="5" style="font-size:10px;font-weight:bold;font-family:'arial', sans-serif;color:#000000;text-shadow:0 0 6px #ffffff, 0 0 3px #ffffff;fill:#000000;text-rendering:geometricprecision;" y="15"><tspan>0.64825</tspan></text></g></g><g class="highcharts-data-labels highcharts-series-1" transform="translate(168,10) scale(1 1)" opacity="1"></g><g class="highcharts-legend" transform="translate(259,356)"><g><g><g class="highcharts-legend-item" transform="translate(8,3)"><text x="21" style="color:#333;font-size:9pt;font-weight:normal;cursor:pointer;font-family:'lucida grande','lucida sans unicode',arial,helvetica,sans-serif;text-transform:none;fill:#333;" text-anchor="start" y="15"><tspan>Series 1</tspan></text><rect x="0" y="4" width="16" height="12" fill="#CCC"></rect></g></g></g></g><g class="highcharts-axis-labels highcharts-xaxis-labels"><text x="153" style="color:#000000;cursor:default;font-size:10px;font-family:'arial', sans-serif;text-transform:none;font-weight:normal;fill:#000000;width:188px;text-overflow:clip;" text-anchor="end" transform="translate(0,0)" y="52" opacity="1"><tspan>Первая модель</tspan></text><text x="153" style="color:#000000;cursor:default;font-size:10px;font-family:'arial', sans-serif;text-transform:none;font-weight:normal;fill:#000000;width:188px;text-overflow:clip;" text-anchor="end" transform="translate(0,0)" y="127" opacity="1"><tspan>Baseline SemEval-2016</tspan></text><text x="153" style="color:#000000;cursor:default;font-size:10px;font-family:'arial', sans-serif;text-transform:none;font-weight:normal;fill:#000000;width:188px;text-overflow:clip;" text-anchor="end" transform="translate(0,0)" y="201" opacity="1"><tspan>Итоговая модель</tspan></text><text x="153" style="color:#000000;cursor:default;font-size:10px;font-family:'arial', sans-serif;text-transform:none;font-weight:normal;fill:#000000;width:188px;text-overflow:clip;" text-anchor="end" transform="translate(0,0)" y="276" opacity="1"><tspan>Лучшая модель SemEval-2016</tspan></text></g><g class="highcharts-axis-labels highcharts-yaxis-labels"><text x="168" style="color:#000000;cursor:default;font-size:10px;font-family:'arial', sans-serif;text-transform:none;font-weight:normal;fill:#000000;width:60.285714285714285;text-overflow:ellipsis;" text-anchor="middle" transform="translate(0,0)" y="327" opacity="1"><tspan>0</tspan></text><text x="228.28571428571428" style="color:#000000;cursor:default;font-size:10px;font-family:'arial', sans-serif;text-transform:none;font-weight:normal;fill:#000000;width:60.285714285714285;text-overflow:ellipsis;" text-anchor="middle" transform="translate(0,0)" y="327" opacity="1"><tspan>0.1</tspan></text><text x="288.57142857142856" style="color:#000000;cursor:default;font-size:10px;font-family:'arial', sans-serif;text-transform:none;font-weight:normal;fill:#000000;width:60.285714285714285;text-overflow:ellipsis;" text-anchor="middle" transform="translate(0,0)" y="327" opacity="1"><tspan>0.2</tspan></text><text x="348.8571428571429" style="color:#000000;cursor:default;font-size:10px;font-family:'arial', sans-serif;text-transform:none;font-weight:normal;fill:#000000;width:60.285714285714285;text-overflow:ellipsis;" text-anchor="middle" transform="translate(0,0)" y="327" opacity="1"><tspan>0.3</tspan></text><text x="409.14285714285717" style="color:#000000;cursor:default;font-size:10px;font-family:'arial', sans-serif;text-transform:none;font-weight:normal;fill:#000000;width:60.285714285714285;text-overflow:ellipsis;" text-anchor="middle" transform="translate(0,0)" y="327" opacity="1"><tspan>0.4</tspan></text><text x="469.42857142857144" style="color:#000000;cursor:default;font-size:10px;font-family:'arial', sans-serif;text-transform:none;font-weight:normal;fill:#000000;width:60.285714285714285;text-overflow:ellipsis;" text-anchor="middle" transform="translate(0,0)" y="327" opacity="1"><tspan>0.5</tspan></text><text x="529.7142857142858" style="color:#000000;cursor:default;font-size:10px;font-family:'arial', sans-serif;text-transform:none;font-weight:normal;fill:#000000;width:60.285714285714285;text-overflow:ellipsis;" text-anchor="middle" transform="translate(0,0)" y="327" opacity="1"><tspan>0.6</tspan></text><text x="583.0546875" style="color:#000000;cursor:default;font-size:10px;font-family:'arial', sans-serif;text-transform:none;font-weight:normal;fill:#000000;width:30.142857142857142;text-overflow:ellipsis;" text-anchor="middle" transform="translate(0,0)" y="327" opacity="1"><tspan>0.7</tspan></text></g><g class="highcharts-tooltip" display="none" style="cursor:default;padding:0;pointer-events:none;white-space:nowrap;" transform="translate(0,0)"><path fill="none" d="M 3.5 0.5 L 13.5 0.5 C 16.5 0.5 16.5 0.5 16.5 3.5 L 16.5 13.5 C 16.5 16.5 16.5 16.5 13.5 16.5 L 3.5 16.5 C 0.5 16.5 0.5 16.5 0.5 13.5 L 0.5 3.5 C 0.5 0.5 0.5 0.5 3.5 0.5"  stroke="black" stroke-opacity="0.049999999999999996" stroke-width="5" transform="translate(1, 1)"></path><path fill="none" d="M 3.5 0.5 L 13.5 0.5 C 16.5 0.5 16.5 0.5 16.5 3.5 L 16.5 13.5 C 16.5 16.5 16.5 16.5 13.5 16.5 L 3.5 16.5 C 0.5 16.5 0.5 16.5 0.5 13.5 L 0.5 3.5 C 0.5 0.5 0.5 0.5 3.5 0.5"  stroke="black" stroke-opacity="0.09999999999999999" stroke-width="3" transform="translate(1, 1)"></path><path fill="none" d="M 3.5 0.5 L 13.5 0.5 C 16.5 0.5 16.5 0.5 16.5 3.5 L 16.5 13.5 C 16.5 16.5 16.5 16.5 13.5 16.5 L 3.5 16.5 C 0.5 16.5 0.5 16.5 0.5 13.5 L 0.5 3.5 C 0.5 0.5 0.5 0.5 3.5 0.5"  stroke="black" stroke-opacity="0.15" stroke-width="1" transform="translate(1, 1)"></path><path fill="rgb(255, 255, 255)" fill-opacity=" 0.85" d="M 3.5 0.5 L 13.5 0.5 C 16.5 0.5 16.5 0.5 16.5 3.5 L 16.5 13.5 C 16.5 16.5 16.5 16.5 13.5 16.5 L 3.5 16.5 C 0.5 16.5 0.5 16.5 0.5 13.5 L 0.5 3.5 C 0.5 0.5 0.5 0.5 3.5 0.5"></path><text x="8" style="font-size:12px;color:#000000;fill:#000000;" y="20"></text></g><text x="590" text-anchor="end" style="cursor:pointer;color:#909090;font-size:9px;fill:#909090;" y="395">meta-chart.com</text></svg>