<?xml version="1.0" standalone="no"?><!DOCTYPE svg PUBLIC "-//W3C//DTD SVG 1.1//EN" "http://www.w3.org/Graphics/SVG/1.1/DTD/svg11.dtd"><svg xmlns:xlink="http://www.w3.org/1999/xlink" version="1.1" style="font-family:'lucida grande', 'lucida sans unicode', arial, helvetica, sans-serif;font-size:12px;" xmlns="http://www.w3.org/2000/svg" width="600" height="400"><desc>Created with Highcharts 4.2.7</desc><defs><clipPath id="highcharts-63"><rect x="1" y="1" width="527" height="287"></rect></clipPath></defs><rect x="61" y="36" width="529" height="289" fill="#ffffff"></rect><path fill="rgb(255, 255, 255)" fill-opacity=" .5" d="M 61 325.5 L 590 325.5 590 277.5 61 277.5"></path><path fill="rgb(255, 255, 255)" fill-opacity=" .5" d="M 61 229.5 L 590 229.5 590 181.5 61 181.5"></path><path fill="rgb(255, 255, 255)" fill-opacity=" .5" d="M 61 132.5 L 590 132.5 590 84.5 61 84.5"></path><g class="highcharts-grid"></g><g class="highcharts-grid"><path fill="none" d="M 61 325.5 L 590 325.5" stroke="#C0C0C0" stroke-width="1" opacity="1"></path><path fill="none" d="M 61 277.5 L 590 277.5" stroke="#C0C0C0" stroke-width="1" opacity="1"></path><path fill="none" d="M 61 229.5 L 590 229.5" stroke="#C0C0C0" stroke-width="1" opacity="1"></path><path fill="none" d="M 61 181.5 L 590 181.5" stroke="#C0C0C0" stroke-width="1" opacity="1"></path><path fill="none" d="M 61 132.5 L 590 132.5" stroke="#C0C0C0" stroke-width="1" opacity="1"></path><path fill="none" d="M 61 84.5 L 590 84.5" stroke="#C0C0C0" stroke-width="1" opacity="1"></path><path fill="none" d="M 61 35.5 L 590 35.5" stroke="#C0C0C0" stroke-width="1" opacity="1"></path></g><rect x="61" y="36" width="529" height="289" stroke="#026FC1" stroke-width="2" fill="none"></rect><g class="highcharts-axis"><path fill="none" d="M 192.5 325 L 192.5 335" stroke="#C0D0E0" stroke-width="1" opacity="1"></path><path fill="none" d="M 325.5 325 L 325.5 335" stroke="#C0D0E0" stroke-width="1" opacity="1"></path><path fill="none" d="M 457.5 325 L 457.5 335" stroke="#C0D0E0" stroke-width="1" opacity="1"></path><path fill="none" d="M 590.5 325 L 590.5 335" stroke="#C0D0E0" stroke-width="1" opacity="1"></path><path fill="none" d="M 60.5 325 L 60.5 335" stroke="#C0D0E0" stroke-width="1" opacity="1"></path><path fill="none" d="M 61 325.5 L 590 325.5" stroke="#C0D0E0" stroke-width="1"></path></g><g class="highcharts-axis"><path fill="none" d="M 61 325.5 L 51 325.5" stroke="#C0D0E0" stroke-width="1" opacity="1"></path><path fill="none" d="M 61 277.5 L 51 277.5" stroke="#C0D0E0" stroke-width="1" opacity="1"></path><path fill="none" d="M 61 229.5 L 51 229.5" stroke="#C0D0E0" stroke-width="1" opacity="1"></path><path fill="none" d="M 61 181.5 L 51 181.5" stroke="#C0D0E0" stroke-width="1" opacity="1"></path><path fill="none" d="M 61 132.5 L 51 132.5" stroke="#C0D0E0" stroke-width="1" opacity="1"></path><path fill="none" d="M 61 84.5 L 51 84.5" stroke="#C0D0E0" stroke-width="1" opacity="1"></path><path fill="none" d="M 61 35.5 L 51 35.5" stroke="#C0D0E0" stroke-width="1" opacity="1"></path><text x="21" text-anchor="middle" transform="translate(0,0) rotate(270 21 180.5)" class=" highcharts-yaxis-title" style="color:#000000;font-size:10px;font-family:'arial', sans-serif;text-transform:none;font-weight:normal;fill:#000000;" y="180.5"><tspan>F1 macro</tspan></text></g><g class="highcharts-series-group"><g class="highcharts-series highcharts-series-0" transform="translate(61,36) scale(1 1)" clip-path="url(#highcharts-63)"><rect x="33.5" y="111.5" width="64" height="178" stroke="#FFFFFF" stroke-width="1" fill="#50B432" rx="0" ry="0"></rect><rect x="166.5" y="135.5" width="64" height="154" stroke="#FFFFFF" stroke-width="1" fill="#ED561B" rx="0" ry="0"></rect><rect x="298.5" y="101.5" width="64" height="188" stroke="#FFFFFF" stroke-width="1" fill="#DDDF00" rx="0" ry="0"></rect><rect x="430.5" y="46.5" width="64" height="243" stroke="#FFFFFF" stroke-width="1" fill="#24cbe5" rx="0" ry="0"></rect></g><g class="highcharts-markers highcharts-series-0" transform="translate(61,36) scale(1 1)" clip-path="none"></g><g class="highcharts-series highcharts-series-1" transform="translate(61,36) scale(1 1)" clip-path="url(#highcharts-63)"></g><g class="highcharts-markers highcharts-series-1" transform="translate(61,36) scale(1 1)" clip-path="none"></g></g><text x="300" text-anchor="middle" class="highcharts-title" style="color:#000000;font-size:10px;font-family:'arial', sans-serif;text-transform:none;fill:#000000;width:536px;" y="17"><tspan>Алгоритмы обучения</tspan></text><g class="highcharts-data-labels highcharts-series-0" transform="translate(61,36) scale(1 1)" opacity="1"><g style="cursor:pointer;" transform="translate(44,91)"><text x="5" style="font-size:10px;font-weight:bold;font-family:'arial', sans-serif;color:#000000;text-shadow:0 0 6px #ffffff, 0 0 3px #ffffff;fill:#000000;text-rendering:geometricprecision;" y="15"><tspan>0.3699</tspan></text></g><g style="cursor:pointer;" transform="translate(183,115)"><text x="5" style="font-size:10px;font-weight:bold;font-family:'arial', sans-serif;color:#000000;text-shadow:0 0 6px #ffffff, 0 0 3px #ffffff;fill:#000000;text-rendering:geometricprecision;" y="15"><tspan>0.32</tspan></text></g><g style="cursor:pointer;" transform="translate(315,81)"><text x="5" style="font-size:10px;font-weight:bold;font-family:'arial', sans-serif;color:#000000;text-shadow:0 0 6px #ffffff, 0 0 3px #ffffff;fill:#000000;text-rendering:geometricprecision;" y="15"><tspan>0.39</tspan></text></g><g style="cursor:pointer;" transform="translate(444,26)"><text x="5" style="font-size:10px;font-weight:bold;font-family:'arial', sans-serif;color:#000000;text-shadow:0 0 6px #ffffff, 0 0 3px #ffffff;fill:#000000;text-rendering:geometricprecision;" y="15"><tspan>0.505</tspan></text></g></g><g class="highcharts-data-labels highcharts-series-1" transform="translate(61,36) scale(1 1)" opacity="1"></g><g class="highcharts-legend" transform="translate(259,356)"><g><g><g class="highcharts-legend-item" transform="translate(8,3)"><text x="21" style="color:#333;font-size:9pt;font-weight:normal;cursor:pointer;font-family:'lucida grande','lucida sans unicode',arial,helvetica,sans-serif;text-transform:none;fill:#333;" text-anchor="start" y="15"><tspan>Series 1</tspan></text><rect x="0" y="4" width="16" height="12" fill="#CCC"></rect></g></g></g></g><g class="highcharts-axis-labels highcharts-xaxis-labels"><text x="127.125" style="color:#000000;cursor:default;font-size:10px;font-family:'arial', sans-serif;text-transform:none;font-weight:normal;fill:#000000;" text-anchor="middle" transform="translate(0,0)" y="343" opacity="1">MultinomialNB</text><text x="259.375" style="color:#000000;cursor:default;font-size:10px;font-family:'arial', sans-serif;text-transform:none;font-weight:normal;fill:#000000;" text-anchor="middle" transform="translate(0,0)" y="343" opacity="1">RandomForest</text><text x="391.625" style="color:#000000;cursor:default;font-size:10px;font-family:'arial', sans-serif;text-transform:none;font-weight:normal;fill:#000000;" text-anchor="middle" transform="translate(0,0)" y="343" opacity="1">GradientBoosting</text><text x="523.875" style="color:#000000;cursor:default;font-size:10px;font-family:'arial', sans-serif;text-transform:none;font-weight:normal;fill:#000000;" text-anchor="middle" transform="translate(0,0)" y="343" opacity="1">SVM</text></g><g class="highcharts-axis-labels highcharts-yaxis-labels"><text x="46" style="color:#000000;cursor:default;font-size:10px;font-family:'arial', sans-serif;text-transform:none;font-weight:normal;fill:#000000;width:188px;text-overflow:clip;" text-anchor="end" transform="translate(0,0)" y="330" opacity="1"><tspan>0</tspan></text><text x="46" style="color:#000000;cursor:default;font-size:10px;font-family:'arial', sans-serif;text-transform:none;font-weight:normal;fill:#000000;width:188px;text-overflow:clip;" text-anchor="end" transform="translate(0,0)" y="281" opacity="1"><tspan>0.1</tspan></text><text x="46" style="color:#000000;cursor:default;font-size:10px;font-family:'arial', sans-serif;text-transform:none;font-weight:normal;fill:#000000;width:188px;text-overflow:clip;" text-anchor="end" transform="translate(0,0)" y="233" opacity="1"><tspan>0.2</tspan></text><text x="46" style="color:#000000;cursor:default;font-size:10px;font-family:'arial', sans-serif;text-transform:none;font-weight:normal;fill:#000000;width:188px;text-overflow:clip;" text-anchor="end" transform="translate(0,0)" y="185" opacity="1"><tspan>0.3</tspan></text><text x="46" style="color:#000000;cursor:default;font-size:10px;font-family:'arial', sans-serif;text-transform:none;font-weight:normal;fill:#000000;width:188px;text-overflow:clip;" text-anchor="end" transform="translate(0,0)" y="137" opacity="1"><tspan>0.4</tspan></text><text x="46" style="color:#000000;cursor:default;font-size:10px;font-family:'arial', sans-serif;text-transform:none;font-weight:normal;fill:#000000;width:188px;text-overflow:clip;" text-anchor="end" transform="translate(0,0)" y="89" opacity="1"><tspan>0.5</tspan></text><text x="46" style="color:#000000;cursor:default;font-size:10px;font-family:'arial', sans-serif;text-transform:none;font-weight:normal;fill:#000000;width:188px;text-overflow:clip;" text-anchor="end" transform="translate(0,0)" y="41" opacity="1"><tspan>0.6</tspan></text></g><g class="highcharts-tooltip" display="none" style="cursor:default;padding:0;pointer-events:none;white-space:nowrap;" transform="translate(0,0)"><path fill="none" d="M 3.5 0.5 L 13.5 0.5 C 16.5 0.5 16.5 0.5 16.5 3.5 L 16.5 13.5 C 16.5 16.5 16.5 16.5 13.5 16.5 L 3.5 16.5 C 0.5 16.5 0.5 16.5 0.5 13.5 L 0.5 3.5 C 0.5 0.5 0.5 0.5 3.5 0.5"  stroke="black" stroke-opacity="0.049999999999999996" stroke-width="5" transform="translate(1, 1)"></path><path fill="none" d="M 3.5 0.5 L 13.5 0.5 C 16.5 0.5 16.5 0.5 16.5 3.5 L 16.5 13.5 C 16.5 16.5 16.5 16.5 13.5 16.5 L 3.5 16.5 C 0.5 16.5 0.5 16.5 0.5 13.5 L 0.5 3.5 C 0.5 0.5 0.5 0.5 3.5 0.5"  stroke="black" stroke-opacity="0.09999999999999999" stroke-width="3" transform="translate(1, 1)"></path><path fill="none" d="M 3.5 0.5 L 13.5 0.5 C 16.5 0.5 16.5 0.5 16.5 3.5 L 16.5 13.5 C 16.5 16.5 16.5 16.5 13.5 16.5 L 3.5 16.5 C 0.5 16.5 0.5 16.5 0.5 13.5 L 0.5 3.5 C 0.5 0.5 0.5 0.5 3.5 0.5"  stroke="black" stroke-opacity="0.15" stroke-width="1" transform="translate(1, 1)"></path><path fill="rgb(255, 255, 255)" fill-opacity=" 0.85" d="M 3.5 0.5 L 13.5 0.5 C 16.5 0.5 16.5 0.5 16.5 3.5 L 16.5 13.5 C 16.5 16.5 16.5 16.5 13.5 16.5 L 3.5 16.5 C 0.5 16.5 0.5 16.5 0.5 13.5 L 0.5 3.5 C 0.5 0.5 0.5 0.5 3.5 0.5"></path><text x="8" style="font-size:12px;color:#000000;fill:#000000;" y="20"></text></g><text x="590" text-anchor="end" style="cursor:pointer;color:#909090;font-size:9px;fill:#909090;" y="395">meta-chart.com</text></svg>