<?xml version="1.0" standalone="no"?><!DOCTYPE svg PUBLIC "-//W3C//DTD SVG 1.1//EN" "http://www.w3.org/Graphics/SVG/1.1/DTD/svg11.dtd"><svg xmlns:xlink="http://www.w3.org/1999/xlink" version="1.1" style="font-family:'lucida grande', 'lucida sans unicode', arial, helvetica, sans-serif;font-size:12px;" xmlns="http://www.w3.org/2000/svg" width="600" height="400"><desc>Created with Highcharts 4.2.7</desc><defs><clipPath id="highcharts-31"><rect x="1" y="1" width="313" height="441"></rect></clipPath></defs><rect x="147" y="10" width="443" height="315" fill="#ffffff"></rect><path fill="rgb(255, 255, 255)" fill-opacity=" .5" d="M 146.5 10 L 146.5 325 209.5 325 209.5 10"></path><path fill="rgb(255, 255, 255)" fill-opacity=" .5" d="M 273.5 10 L 273.5 325 336.5 325 336.5 10"></path><path fill="rgb(255, 255, 255)" fill-opacity=" .5" d="M 399.5 10 L 399.5 325 462.5 325 462.5 10"></path><path fill="rgb(255, 255, 255)" fill-opacity=" .5" d="M 526.5 10 L 526.5 325 589.5 325 589.5 10"></path><g class="highcharts-grid"></g><g class="highcharts-grid"><path fill="none" d="M 146.5 10 L 146.5 325" stroke="#C0C0C0" stroke-width="1" opacity="1"></path><path fill="none" d="M 209.5 10 L 209.5 325" stroke="#C0C0C0" stroke-width="1" opacity="1"></path><path fill="none" d="M 273.5 10 L 273.5 325" stroke="#C0C0C0" stroke-width="1" opacity="1"></path><path fill="none" d="M 336.5 10 L 336.5 325" stroke="#C0C0C0" stroke-width="1" opacity="1"></path><path fill="none" d="M 399.5 10 L 399.5 325" stroke="#C0C0C0" stroke-width="1" opacity="1"></path><path fill="none" d="M 462.5 10 L 462.5 325" stroke="#C0C0C0" stroke-width="1" opacity="1"></path><path fill="none" d="M 526.5 10 L 526.5 325" stroke="#C0C0C0" stroke-width="1" opacity="1"></path><path fill="none" d="M 590.5 10 L 590.5 325" stroke="#C0C0C0" stroke-width="1" opacity="1"></path></g><rect x="147" y="10" width="443" height="315" stroke="#026FC1" stroke-width="2" fill="none"></rect><g class="highcharts-axis"><path fill="none" d="M 147 115.5 L 137 115.5" stroke="#C0D0E0" stroke-width="1" opacity="1"></path><path fill="none" d="M 147 220.5 L 137 220.5" stroke="#C0D0E0" stroke-width="1" opacity="1"></path><path fill="none" d="M 147 325.5 L 137 325.5" stroke="#C0D0E0" stroke-width="1" opacity="1"></path><path fill="none" d="M 147 9.5 L 137 9.5" stroke="#C0D0E0" stroke-width="1" opacity="1"></path><path fill="none" d="M 146.5 10 L 146.5 325" stroke="#C0D0E0" stroke-width="1"></path></g><g class="highcharts-axis"><path fill="none" d="M 146.5 325 L 146.5 335" stroke="#C0D0E0" stroke-width="1" opacity="1"></path><path fill="none" d="M 209.5 325 L 209.5 335" stroke="#C0D0E0" stroke-width="1" opacity="1"></path><path fill="none" d="M 273.5 325 L 273.5 335" stroke="#C0D0E0" stroke-width="1" opacity="1"></path><path fill="none" d="M 336.5 325 L 336.5 335" stroke="#C0D0E0" stroke-width="1" opacity="1"></path><path fill="none" d="M 399.5 325 L 399.5 335" stroke="#C0D0E0" stroke-width="1" opacity="1"></path><path fill="none" d="M 462.5 325 L 462.5 335" stroke="#C0D0E0" stroke-width="1" opacity="1"></path><path fill="none" d="M 526.5 325 L 526.5 335" stroke="#C0D0E0" stroke-width="1" opacity="1"></path><path fill="none" d="M 590.5 325 L 590.5 335" stroke="#C0D0E0" stroke-width="1" opacity="1"></path></g><g class="highcharts-series-group"><g class="highcharts-series highcharts-series-0" transform="translate(590,325) rotate(90) scale(-1,1) scale(1 1)" width="443" height="315" clip-path="url(#highcharts-31)"><rect x="236.5" y="240.5" width="51" height="203" stroke="#FFFFFF" stroke-width="1" fill="#ff0000" rx="0" ry="0"></rect><rect x="131.5" y="95.5" width="51" height="348" stroke="#FFFFFF" stroke-width="1" fill="#f0ff00" rx="0" ry="0"></rect><rect x="26.5" y="41.5" width="51" height="402" stroke="#FFFFFF" stroke-width="1" fill="#1aff00" rx="0" ry="0"></rect></g><g class="highcharts-markers highcharts-series-0" transform="translate(590,325) rotate(90) scale(-1,1) scale(1 1)" width="443" height="315" clip-path="none"></g><g class="highcharts-series highcharts-series-1" transform="translate(590,325) rotate(90) scale(-1,1) scale(1 1)" width="443" height="315" clip-path="url(#highcharts-31)"></g><g class="highcharts-markers highcharts-series-1" transform="translate(590,325) rotate(90) scale(-1,1) scale(1 1)" width="443" height="315" clip-path="none"></g></g><g class="highcharts-data-labels highcharts-series-0" transform="translate(147,10) scale(1 1)" opacity="1"><g style="cursor:pointer;" transform="translate(203,43)"><text x="5" style="font-size:10px;font-weight:bold;font-family:'arial', sans-serif;color:#000000;text-shadow:0 0 6px #ffffff, 0 0 3px #ffffff;fill:#000000;text-rendering:geometricprecision;" y="15"><tspan>0.32</tspan></text></g><g style="cursor:pointer;" transform="translate(348,148)"><text x="5" style="font-size:10px;font-weight:bold;font-family:'arial', sans-serif;color:#000000;text-shadow:0 0 6px #ffffff, 0 0 3px #ffffff;fill:#000000;text-rendering:geometricprecision;" y="15"><tspan>0.55</tspan></text></g><g style="cursor:pointer;" transform="translate(402,253)"><text x="5" style="font-size:10px;font-weight:bold;font-family:'arial', sans-serif;color:#000000;text-shadow:0 0 6px #ffffff, 0 0 3px #ffffff;fill:#000000;text-rendering:geometricprecision;" y="15"><tspan>0.635</tspan></text></g></g><g class="highcharts-data-labels highcharts-series-1" transform="translate(147,10) scale(1 1)" opacity="1"></g><g class="highcharts-legend" transform="translate(259,356)"><g><g><g class="highcharts-legend-item" transform="translate(8,3)"><text x="21" style="color:#333;font-size:9pt;font-weight:normal;cursor:pointer;font-family:'lucida grande','lucida sans unicode',arial,helvetica,sans-serif;text-transform:none;fill:#333;" text-anchor="start" y="15"><tspan>Series 1</tspan></text><rect x="0" y="4" width="16" height="12" fill="#CCC"></rect></g></g></g></g><g class="highcharts-axis-labels highcharts-xaxis-labels"><text x="132" style="color:#000000;cursor:default;font-size:10px;font-family:'arial', sans-serif;text-transform:none;font-weight:normal;fill:#000000;width:188px;text-overflow:clip;" text-anchor="end" transform="translate(0,0)" y="67" opacity="1"><tspan>Первая модель</tspan></text><text x="132" style="color:#000000;cursor:default;font-size:10px;font-family:'arial', sans-serif;text-transform:none;font-weight:normal;fill:#000000;width:188px;text-overflow:clip;" text-anchor="end" transform="translate(0,0)" y="172" opacity="1"><tspan>Baseline SemEval-2016`</tspan></text><text x="132" style="color:#000000;cursor:default;font-size:10px;font-family:'arial', sans-serif;text-transform:none;font-weight:normal;fill:#000000;width:188px;text-overflow:clip;" text-anchor="end" transform="translate(0,0)" y="277" opacity="1"><tspan>Итоговый классификатор</tspan></text></g><g class="highcharts-axis-labels highcharts-yaxis-labels"><text x="147" style="color:#000000;cursor:default;font-size:10px;font-family:'arial', sans-serif;text-transform:none;font-weight:normal;fill:#000000;width:63.285714285714285;text-overflow:ellipsis;" text-anchor="middle" transform="translate(0,0)" y="343" opacity="1"><tspan>0</tspan></text><text x="210.28571428571428" style="color:#000000;cursor:default;font-size:10px;font-family:'arial', sans-serif;text-transform:none;font-weight:normal;fill:#000000;width:63.285714285714285;text-overflow:ellipsis;" text-anchor="middle" transform="translate(0,0)" y="343" opacity="1"><tspan>0.1</tspan></text><text x="273.57142857142856" style="color:#000000;cursor:default;font-size:10px;font-family:'arial', sans-serif;text-transform:none;font-weight:normal;fill:#000000;width:63.285714285714285;text-overflow:ellipsis;" text-anchor="middle" transform="translate(0,0)" y="343" opacity="1"><tspan>0.2</tspan></text><text x="336.8571428571429" style="color:#000000;cursor:default;font-size:10px;font-family:'arial', sans-serif;text-transform:none;font-weight:normal;fill:#000000;width:63.285714285714285;text-overflow:ellipsis;" text-anchor="middle" transform="translate(0,0)" y="343" opacity="1"><tspan>0.3</tspan></text><text x="400.14285714285717" style="color:#000000;cursor:default;font-size:10px;font-family:'arial', sans-serif;text-transform:none;font-weight:normal;fill:#000000;width:63.285714285714285;text-overflow:ellipsis;" text-anchor="middle" transform="translate(0,0)" y="343" opacity="1"><tspan>0.4</tspan></text><text x="463.42857142857144" style="color:#000000;cursor:default;font-size:10px;font-family:'arial', sans-serif;text-transform:none;font-weight:normal;fill:#000000;width:63.285714285714285;text-overflow:ellipsis;" text-anchor="middle" transform="translate(0,0)" y="343" opacity="1"><tspan>0.5</tspan></text><text x="526.7142857142858" style="color:#000000;cursor:default;font-size:10px;font-family:'arial', sans-serif;text-transform:none;font-weight:normal;fill:#000000;width:63.285714285714285;text-overflow:ellipsis;" text-anchor="middle" transform="translate(0,0)" y="343" opacity="1"><tspan>0.6</tspan></text><text x="582.5" style="color:#000000;cursor:default;font-size:10px;font-family:'arial', sans-serif;text-transform:none;font-weight:normal;fill:#000000;width:31.642857142857142;text-overflow:ellipsis;" text-anchor="middle" transform="translate(0,0)" y="343" opacity="1"><tspan>0.7</tspan></text></g><g class="highcharts-tooltip" display="none" style="cursor:default;padding:0;pointer-events:none;white-space:nowrap;" transform="translate(0,0)"><path fill="none" d="M 3.5 0.5 L 13.5 0.5 C 16.5 0.5 16.5 0.5 16.5 3.5 L 16.5 13.5 C 16.5 16.5 16.5 16.5 13.5 16.5 L 3.5 16.5 C 0.5 16.5 0.5 16.5 0.5 13.5 L 0.5 3.5 C 0.5 0.5 0.5 0.5 3.5 0.5"  stroke="black" stroke-opacity="0.049999999999999996" stroke-width="5" transform="translate(1, 1)"></path><path fill="none" d="M 3.5 0.5 L 13.5 0.5 C 16.5 0.5 16.5 0.5 16.5 3.5 L 16.5 13.5 C 16.5 16.5 16.5 16.5 13.5 16.5 L 3.5 16.5 C 0.5 16.5 0.5 16.5 0.5 13.5 L 0.5 3.5 C 0.5 0.5 0.5 0.5 3.5 0.5"  stroke="black" stroke-opacity="0.09999999999999999" stroke-width="3" transform="translate(1, 1)"></path><path fill="none" d="M 3.5 0.5 L 13.5 0.5 C 16.5 0.5 16.5 0.5 16.5 3.5 L 16.5 13.5 C 16.5 16.5 16.5 16.5 13.5 16.5 L 3.5 16.5 C 0.5 16.5 0.5 16.5 0.5 13.5 L 0.5 3.5 C 0.5 0.5 0.5 0.5 3.5 0.5"  stroke="black" stroke-opacity="0.15" stroke-width="1" transform="translate(1, 1)"></path><path fill="rgb(255, 255, 255)" fill-opacity=" 0.85" d="M 3.5 0.5 L 13.5 0.5 C 16.5 0.5 16.5 0.5 16.5 3.5 L 16.5 13.5 C 16.5 16.5 16.5 16.5 13.5 16.5 L 3.5 16.5 C 0.5 16.5 0.5 16.5 0.5 13.5 L 0.5 3.5 C 0.5 0.5 0.5 0.5 3.5 0.5"></path><text x="8" style="font-size:12px;color:#000000;fill:#000000;" y="20"></text></g><text x="590" text-anchor="end" style="cursor:pointer;color:#909090;font-size:9px;fill:#909090;" y="395">meta-chart.com</text></svg>