<?xml version="1.0" standalone="no"?><!DOCTYPE svg PUBLIC "-//W3C//DTD SVG 1.1//EN" "http://www.w3.org/Graphics/SVG/1.1/DTD/svg11.dtd"><svg xmlns:xlink="http://www.w3.org/1999/xlink" version="1.1" style="font-family:'lucida grande', 'lucida sans unicode', arial, helvetica, sans-serif;font-size:12px;" xmlns="http://www.w3.org/2000/svg" width="600" height="400"><desc>Created with Highcharts 4.2.7</desc><defs><clipPath id="highcharts-5"><rect x="1" y="1" width="528" height="313"></rect></clipPath></defs><rect x="60" y="10" width="530" height="315" fill="#ffffff"></rect><path fill="rgb(255, 255, 255)" fill-opacity=" .5" d="M 60 325.5 L 590 325.5 590 273.5 60 273.5"></path><path fill="rgb(255, 255, 255)" fill-opacity=" .5" d="M 60 220.5 L 590 220.5 590 168.5 60 168.5"></path><path fill="rgb(255, 255, 255)" fill-opacity=" .5" d="M 60 115.5 L 590 115.5 590 63.5 60 63.5"></path><g class="highcharts-grid"></g><g class="highcharts-grid"><path fill="none" d="M 60 325.5 L 590 325.5" stroke="#C0C0C0" stroke-width="1" opacity="1"></path><path fill="none" d="M 60 273.5 L 590 273.5" stroke="#C0C0C0" stroke-width="1" opacity="1"></path><path fill="none" d="M 60 220.5 L 590 220.5" stroke="#C0C0C0" stroke-width="1" opacity="1"></path><path fill="none" d="M 60 168.5 L 590 168.5" stroke="#C0C0C0" stroke-width="1" opacity="1"></path><path fill="none" d="M 60 115.5 L 590 115.5" stroke="#C0C0C0" stroke-width="1" opacity="1"></path><path fill="none" d="M 60 63.5 L 590 63.5" stroke="#C0C0C0" stroke-width="1" opacity="1"></path><path fill="none" d="M 60 9.5 L 590 9.5" stroke="#C0C0C0" stroke-width="1" opacity="1"></path></g><rect x="60" y="10" width="530" height="315" stroke="#026FC1" stroke-width="2" fill="none"></rect><g class="highcharts-axis"><path fill="none" d="M 192.5 325 L 192.5 335" stroke="#C0D0E0" stroke-width="1" opacity="1"></path><path fill="none" d="M 324.5 325 L 324.5 335" stroke="#C0D0E0" stroke-width="1" opacity="1"></path><path fill="none" d="M 457.5 325 L 457.5 335" stroke="#C0D0E0" stroke-width="1" opacity="1"></path><path fill="none" d="M 590.5 325 L 590.5 335" stroke="#C0D0E0" stroke-width="1" opacity="1"></path><path fill="none" d="M 59.5 325 L 59.5 335" stroke="#C0D0E0" stroke-width="1" opacity="1"></path><path fill="none" d="M 60 325.5 L 590 325.5" stroke="#C0D0E0" stroke-width="1"></path></g><g class="highcharts-axis"><path fill="none" d="M 60 325.5 L 50 325.5" stroke="#C0D0E0" stroke-width="1" opacity="1"></path><path fill="none" d="M 60 273.5 L 50 273.5" stroke="#C0D0E0" stroke-width="1" opacity="1"></path><path fill="none" d="M 60 220.5 L 50 220.5" stroke="#C0D0E0" stroke-width="1" opacity="1"></path><path fill="none" d="M 60 168.5 L 50 168.5" stroke="#C0D0E0" stroke-width="1" opacity="1"></path><path fill="none" d="M 60 115.5 L 50 115.5" stroke="#C0D0E0" stroke-width="1" opacity="1"></path><path fill="none" d="M 60 63.5 L 50 63.5" stroke="#C0D0E0" stroke-width="1" opacity="1"></path><path fill="none" d="M 60 9.5 L 50 9.5" stroke="#C0D0E0" stroke-width="1" opacity="1"></path><text x="21.109375" text-anchor="middle" transform="translate(0,0) rotate(270 21.109375 167.5)" class=" highcharts-yaxis-title" style="color:#000000;font-size:10px;font-family:'arial', sans-serif;text-transform:none;font-weight:normal;fill:#000000;" y="167.5">F-macro</text></g><g class="highcharts-series-group"><g class="highcharts-series highcharts-series-0" transform="translate(60,10) scale(1 1)" clip-path="url(#highcharts-5)"><rect x="33.5" y="27.5" width="64" height="288" stroke="#FFFFFF" stroke-width="1" fill="#50B432" rx="0" ry="0"></rect><rect x="166.5" y="35.5" width="64" height="280" stroke="#FFFFFF" stroke-width="1" fill="#ED561B" rx="0" ry="0"></rect><rect x="298.5" y="28.5" width="64" height="287" stroke="#FFFFFF" stroke-width="1" fill="#DDDF00" rx="0" ry="0"></rect><rect x="431.5" y="53.5" width="64" height="262" stroke="#FFFFFF" stroke-width="1" fill="#24CBE5" rx="0" ry="0"></rect></g><g class="highcharts-markers highcharts-series-0" transform="translate(60,10) scale(1 1)" clip-path="none"></g><g class="highcharts-series highcharts-series-1" transform="translate(60,10) scale(1 1)" clip-path="url(#highcharts-5)"></g><g class="highcharts-markers highcharts-series-1" transform="translate(60,10) scale(1 1)" clip-path="none"></g></g><g class="highcharts-data-labels highcharts-series-0" transform="translate(60,10) scale(1 1)" opacity="1"><g style="cursor:pointer;" transform="translate(48,7)"><text x="5" style="font-size:10px;font-weight:bold;font-family:'arial', sans-serif;color:#000000;text-shadow:0 0 6px #ffffff, 0 0 3px #ffffff;fill:#000000;text-rendering:geometricprecision;" y="15"><tspan>0.548</tspan></text></g><g style="cursor:pointer;" transform="translate(181,15)"><text x="5" style="font-size:10px;font-weight:bold;font-family:'arial', sans-serif;color:#000000;text-shadow:0 0 6px #ffffff, 0 0 3px #ffffff;fill:#000000;text-rendering:geometricprecision;" y="15"><tspan>0.534</tspan></text></g><g style="cursor:pointer;" transform="translate(313,8)"><text x="5" style="font-size:10px;font-weight:bold;font-family:'arial', sans-serif;color:#000000;text-shadow:0 0 6px #ffffff, 0 0 3px #ffffff;fill:#000000;text-rendering:geometricprecision;" y="15"><tspan>0.546</tspan></text></g><g style="cursor:pointer;" transform="translate(446,33)"><text x="5" style="font-size:10px;font-weight:bold;font-family:'arial', sans-serif;color:#000000;text-shadow:0 0 6px #ffffff, 0 0 3px #ffffff;fill:#000000;text-rendering:geometricprecision;" y="15"><tspan>0.499</tspan></text></g></g><g class="highcharts-data-labels highcharts-series-1" transform="translate(60,10) scale(1 1)" opacity="1"></g><g class="highcharts-legend" transform="translate(252,356)"><g><g><g class="highcharts-legend-item" transform="translate(8,3)"><text x="21" style="color:#333;font-size:9pt;font-weight:normal;cursor:pointer;font-family:'lucida grande','lucida sans unicode',arial,helvetica,sans-serif;text-transform:none;fill:#333;" text-anchor="start" y="15">vectorizer</text><rect x="0" y="4" width="16" height="12" fill="#CCC"></rect></g></g></g></g><g class="highcharts-axis-labels highcharts-xaxis-labels"><text x="126.25" style="color:#000000;cursor:default;font-size:10px;font-family:'arial', sans-serif;text-transform:none;font-weight:normal;fill:#000000;" text-anchor="middle" transform="translate(0,0)" y="343" opacity="1"><tspan>Boolean vectorizer</tspan></text><text x="258.75" style="color:#000000;cursor:default;font-size:10px;font-family:'arial', sans-serif;text-transform:none;font-weight:normal;fill:#000000;" text-anchor="middle" transform="translate(0,0)" y="343" opacity="1"><tspan>Boolean vectorizer + bigrams</tspan></text><text x="391.25" style="color:#000000;cursor:default;font-size:10px;font-family:'arial', sans-serif;text-transform:none;font-weight:normal;fill:#000000;" text-anchor="middle" transform="translate(0,0)" y="343" opacity="1">TF</text><text x="523.75" style="color:#000000;cursor:default;font-size:10px;font-family:'arial', sans-serif;text-transform:none;font-weight:normal;fill:#000000;" text-anchor="middle" transform="translate(0,0)" y="343" opacity="1">TF-IDF</text></g><g class="highcharts-axis-labels highcharts-yaxis-labels"><text x="45" style="color:#000000;cursor:default;font-size:10px;font-family:'arial', sans-serif;text-transform:none;font-weight:normal;fill:#000000;width:188px;text-overflow:clip;" text-anchor="end" transform="translate(0,0)" y="330" opacity="1"><tspan>0</tspan></text><text x="45" style="color:#000000;cursor:default;font-size:10px;font-family:'arial', sans-serif;text-transform:none;font-weight:normal;fill:#000000;width:188px;text-overflow:clip;" text-anchor="end" transform="translate(0,0)" y="277" opacity="1"><tspan>0.1</tspan></text><text x="45" style="color:#000000;cursor:default;font-size:10px;font-family:'arial', sans-serif;text-transform:none;font-weight:normal;fill:#000000;width:188px;text-overflow:clip;" text-anchor="end" transform="translate(0,0)" y="225" opacity="1"><tspan>0.2</tspan></text><text x="45" style="color:#000000;cursor:default;font-size:10px;font-family:'arial', sans-serif;text-transform:none;font-weight:normal;fill:#000000;width:188px;text-overflow:clip;" text-anchor="end" transform="translate(0,0)" y="172" opacity="1"><tspan>0.3</tspan></text><text x="45" style="color:#000000;cursor:default;font-size:10px;font-family:'arial', sans-serif;text-transform:none;font-weight:normal;fill:#000000;width:188px;text-overflow:clip;" text-anchor="end" transform="translate(0,0)" y="120" opacity="1"><tspan>0.4</tspan></text><text x="45" style="color:#000000;cursor:default;font-size:10px;font-family:'arial', sans-serif;text-transform:none;font-weight:normal;fill:#000000;width:188px;text-overflow:clip;" text-anchor="end" transform="translate(0,0)" y="67" opacity="1"><tspan>0.5</tspan></text><text x="45" style="color:#000000;cursor:default;font-size:10px;font-family:'arial', sans-serif;text-transform:none;font-weight:normal;fill:#000000;width:188px;text-overflow:clip;" text-anchor="end" transform="translate(0,0)" y="15" opacity="1"><tspan>0.6</tspan></text></g><g class="highcharts-tooltip" display="none" style="cursor:default;padding:0;pointer-events:none;white-space:nowrap;" transform="translate(0,0)"><path fill="none" d="M 3.5 0.5 L 13.5 0.5 C 16.5 0.5 16.5 0.5 16.5 3.5 L 16.5 13.5 C 16.5 16.5 16.5 16.5 13.5 16.5 L 3.5 16.5 C 0.5 16.5 0.5 16.5 0.5 13.5 L 0.5 3.5 C 0.5 0.5 0.5 0.5 3.5 0.5"  stroke="black" stroke-opacity="0.049999999999999996" stroke-width="5" transform="translate(1, 1)"></path><path fill="none" d="M 3.5 0.5 L 13.5 0.5 C 16.5 0.5 16.5 0.5 16.5 3.5 L 16.5 13.5 C 16.5 16.5 16.5 16.5 13.5 16.5 L 3.5 16.5 C 0.5 16.5 0.5 16.5 0.5 13.5 L 0.5 3.5 C 0.5 0.5 0.5 0.5 3.5 0.5"  stroke="black" stroke-opacity="0.09999999999999999" stroke-width="3" transform="translate(1, 1)"></path><path fill="none" d="M 3.5 0.5 L 13.5 0.5 C 16.5 0.5 16.5 0.5 16.5 3.5 L 16.5 13.5 C 16.5 16.5 16.5 16.5 13.5 16.5 L 3.5 16.5 C 0.5 16.5 0.5 16.5 0.5 13.5 L 0.5 3.5 C 0.5 0.5 0.5 0.5 3.5 0.5"  stroke="black" stroke-opacity="0.15" stroke-width="1" transform="translate(1, 1)"></path><path fill="rgb(255, 255, 255)" fill-opacity=" 0.85" d="M 3.5 0.5 L 13.5 0.5 C 16.5 0.5 16.5 0.5 16.5 3.5 L 16.5 13.5 C 16.5 16.5 16.5 16.5 13.5 16.5 L 3.5 16.5 C 0.5 16.5 0.5 16.5 0.5 13.5 L 0.5 3.5 C 0.5 0.5 0.5 0.5 3.5 0.5"></path><text x="8" style="font-size:12px;color:#000000;fill:#000000;" y="20"></text></g><text x="590" text-anchor="end" style="cursor:pointer;color:#909090;font-size:9px;fill:#909090;" y="395">meta-chart.com</text></svg>