<?xml version="1.0" standalone="no"?><!DOCTYPE svg PUBLIC "-//W3C//DTD SVG 1.1//EN" "http://www.w3.org/Graphics/SVG/1.1/DTD/svg11.dtd"><svg xmlns:xlink="http://www.w3.org/1999/xlink" version="1.1" style="font-family:'lucida grande', 'lucida sans unicode', arial, helvetica, sans-serif;font-size:12px;" xmlns="http://www.w3.org/2000/svg" width="600" height="400"><desc>Created with Highcharts 4.2.7</desc><defs><clipPath id="highcharts-30"><rect x="1" y="1" width="528" height="313"></rect></clipPath></defs><rect x="60" y="10" width="530" height="315" fill="#ffffff"></rect><path fill="rgb(255, 255, 255)" fill-opacity=" .5" d="M 60 325.5 L 590 325.5 590 246.5 60 246.5"></path><path fill="rgb(255, 255, 255)" fill-opacity=" .5" d="M 60 168.5 L 590 168.5 590 89.5 60 89.5"></path><g class="highcharts-grid"></g><g class="highcharts-grid"><path fill="none" d="M 60 325.5 L 590 325.5" stroke="#C0C0C0" stroke-width="1" opacity="1"></path><path fill="none" d="M 60 246.5 L 590 246.5" stroke="#C0C0C0" stroke-width="1" opacity="1"></path><path fill="none" d="M 60 168.5 L 590 168.5" stroke="#C0C0C0" stroke-width="1" opacity="1"></path><path fill="none" d="M 60 89.5 L 590 89.5" stroke="#C0C0C0" stroke-width="1" opacity="1"></path><path fill="none" d="M 60 9.5 L 590 9.5" stroke="#C0C0C0" stroke-width="1" opacity="1"></path></g><rect x="60" y="10" width="530" height="315" stroke="#026FC1" stroke-width="2" fill="none"></rect><g class="highcharts-axis"><path fill="none" d="M 165.5 325 L 165.5 335" stroke="#C0D0E0" stroke-width="1" opacity="1"></path><path fill="none" d="M 271.5 325 L 271.5 335" stroke="#C0D0E0" stroke-width="1" opacity="1"></path><path fill="none" d="M 377.5 325 L 377.5 335" stroke="#C0D0E0" stroke-width="1" opacity="1"></path><path fill="none" d="M 483.5 325 L 483.5 335" stroke="#C0D0E0" stroke-width="1" opacity="1"></path><path fill="none" d="M 590.5 325 L 590.5 335" stroke="#C0D0E0" stroke-width="1" opacity="1"></path><path fill="none" d="M 59.5 325 L 59.5 335" stroke="#C0D0E0" stroke-width="1" opacity="1"></path><path fill="none" d="M 60 325.5 L 590 325.5" stroke="#C0D0E0" stroke-width="1"></path></g><g class="highcharts-axis"><path fill="none" d="M 60 325.5 L 50 325.5" stroke="#C0D0E0" stroke-width="1" opacity="1"></path><path fill="none" d="M 60 246.5 L 50 246.5" stroke="#C0D0E0" stroke-width="1" opacity="1"></path><path fill="none" d="M 60 168.5 L 50 168.5" stroke="#C0D0E0" stroke-width="1" opacity="1"></path><path fill="none" d="M 60 89.5 L 50 89.5" stroke="#C0D0E0" stroke-width="1" opacity="1"></path><path fill="none" d="M 60 9.5 L 50 9.5" stroke="#C0D0E0" stroke-width="1" opacity="1"></path><text x="20.671875" text-anchor="middle" transform="translate(0,0) rotate(270 20.671875 167.5)" class=" highcharts-yaxis-title" style="color:#000000;font-size:10px;font-family:'arial', sans-serif;text-transform:none;font-weight:normal;fill:#000000;" y="167.5">F-macro</text></g><g class="highcharts-series-group"><g class="highcharts-series highcharts-series-0" transform="translate(60,10) scale(1 1)" clip-path="url(#highcharts-30)"><rect x="27.5" y="147.5" width="51" height="168" stroke="#FFFFFF" stroke-width="1" fill="#50B432" rx="0" ry="0"></rect><rect x="133.5" y="167.5" width="51" height="148" stroke="#FFFFFF" stroke-width="1" fill="#ED561B" rx="0" ry="0"></rect><rect x="239.5" y="189.5" width="51" height="126" stroke="#FFFFFF" stroke-width="1" fill="#DDDF00" rx="0" ry="0"></rect><rect x="345.5" y="169.5" width="51" height="146" stroke="#FFFFFF" stroke-width="1" fill="#24CBE5" rx="0" ry="0"></rect><rect x="451.5" y="65.5" width="51" height="250" stroke="#FFFFFF" stroke-width="1" fill="#64E572" rx="0" ry="0"></rect></g><g class="highcharts-markers highcharts-series-0" transform="translate(60,10) scale(1 1)" clip-path="none"></g><g class="highcharts-series highcharts-series-1" transform="translate(60,10) scale(1 1)" clip-path="url(#highcharts-30)"></g><g class="highcharts-markers highcharts-series-1" transform="translate(60,10) scale(1 1)" clip-path="none"></g></g><g class="highcharts-data-labels highcharts-series-0" transform="translate(60,10) scale(1 1)" opacity="1"><g style="cursor:pointer;" transform="translate(35,127)"><text x="5" style="font-size:10px;font-weight:bold;font-family:'arial', sans-serif;color:#000000;text-shadow:0 0 6px #ffffff, 0 0 3px #ffffff;fill:#000000;text-rendering:geometricprecision;" y="15"><tspan>0.427</tspan></text></g><g style="cursor:pointer;" transform="translate(141,147)"><text x="5" style="font-size:10px;font-weight:bold;font-family:'arial', sans-serif;color:#000000;text-shadow:0 0 6px #ffffff, 0 0 3px #ffffff;fill:#000000;text-rendering:geometricprecision;" y="15"><tspan>0.376</tspan></text></g><g style="cursor:pointer;" transform="translate(250,169)"><text x="5" style="font-size:10px;font-weight:bold;font-family:'arial', sans-serif;color:#000000;text-shadow:0 0 6px #ffffff, 0 0 3px #ffffff;fill:#000000;text-rendering:geometricprecision;" y="15"><tspan>0.32</tspan></text></g><g style="cursor:pointer;" transform="translate(356,149)"><text x="5" style="font-size:10px;font-weight:bold;font-family:'arial', sans-serif;color:#000000;text-shadow:0 0 6px #ffffff, 0 0 3px #ffffff;fill:#000000;text-rendering:geometricprecision;" y="15"><tspan>0.37</tspan></text></g><g style="cursor:pointer;" transform="translate(459,45)"><text x="5" style="font-size:10px;font-weight:bold;font-family:'arial', sans-serif;color:#000000;text-shadow:0 0 6px #ffffff, 0 0 3px #ffffff;fill:#000000;text-rendering:geometricprecision;" y="15"><tspan>0.635</tspan></text></g></g><g class="highcharts-data-labels highcharts-series-1" transform="translate(60,10) scale(1 1)" opacity="1"></g><g class="highcharts-legend" transform="translate(259,356)"><g><g><g class="highcharts-legend-item" transform="translate(8,3)"><text x="21" style="color:#333;font-size:9pt;font-weight:normal;cursor:pointer;font-family:'lucida grande','lucida sans unicode',arial,helvetica,sans-serif;text-transform:none;fill:#333;" text-anchor="start" y="15"><tspan>Series 1</tspan></text><rect x="0" y="4" width="16" height="12" fill="#CCC"></rect></g></g></g></g><g class="highcharts-axis-labels highcharts-xaxis-labels"><text x="113" style="color:#000000;cursor:default;font-size:10px;font-family:'arial', sans-serif;text-transform:none;font-weight:normal;fill:#000000;" text-anchor="middle" transform="translate(0,0)" y="343" opacity="1"><tspan>VW + norm</tspan></text><text x="219" style="color:#000000;cursor:default;font-size:10px;font-family:'arial', sans-serif;text-transform:none;font-weight:normal;fill:#000000;" text-anchor="middle" transform="translate(0,0)" y="343" opacity="1"><tspan>VW + norm + 2gram</tspan></text><text x="325" style="color:#000000;cursor:default;font-size:10px;font-family:'arial', sans-serif;text-transform:none;font-weight:normal;fill:#000000;" text-anchor="middle" transform="translate(0,0)" y="343" opacity="1"><tspan>VW + norm + 3gram</tspan></text><text x="431" style="color:#000000;cursor:default;font-size:10px;font-family:'arial', sans-serif;text-transform:none;font-weight:normal;fill:#000000;width:106;text-overflow:ellipsis;" text-anchor="middle" transform="translate(0,0)" y="343" opacity="1"><tspan>VW + norm + remov…</tspan><title>VW + norm + remove sw</title></text><text x="537" style="color:#000000;cursor:default;font-size:10px;font-family:'arial', sans-serif;text-transform:none;font-weight:normal;fill:#000000;" text-anchor="middle" transform="translate(0,0)" y="343" opacity="1">SVM</text></g><g class="highcharts-axis-labels highcharts-yaxis-labels"><text x="45" style="color:#000000;cursor:default;font-size:10px;font-family:'arial', sans-serif;text-transform:none;font-weight:normal;fill:#000000;width:188px;text-overflow:clip;" text-anchor="end" transform="translate(0,0)" y="330" opacity="1"><tspan>0</tspan></text><text x="45" style="color:#000000;cursor:default;font-size:10px;font-family:'arial', sans-serif;text-transform:none;font-weight:normal;fill:#000000;width:188px;text-overflow:clip;" text-anchor="end" transform="translate(0,0)" y="251" opacity="1"><tspan>0.2</tspan></text><text x="45" style="color:#000000;cursor:default;font-size:10px;font-family:'arial', sans-serif;text-transform:none;font-weight:normal;fill:#000000;width:188px;text-overflow:clip;" text-anchor="end" transform="translate(0,0)" y="172" opacity="1"><tspan>0.4</tspan></text><text x="45" style="color:#000000;cursor:default;font-size:10px;font-family:'arial', sans-serif;text-transform:none;font-weight:normal;fill:#000000;width:188px;text-overflow:clip;" text-anchor="end" transform="translate(0,0)" y="93" opacity="1"><tspan>0.6</tspan></text><text x="45" style="color:#000000;cursor:default;font-size:10px;font-family:'arial', sans-serif;text-transform:none;font-weight:normal;fill:#000000;width:188px;text-overflow:clip;" text-anchor="end" transform="translate(0,0)" y="15" opacity="1"><tspan>0.8</tspan></text></g><g class="highcharts-tooltip" display="none" style="cursor:default;padding:0;pointer-events:none;white-space:nowrap;" transform="translate(0,0)"><path fill="none" d="M 3.5 0.5 L 13.5 0.5 C 16.5 0.5 16.5 0.5 16.5 3.5 L 16.5 13.5 C 16.5 16.5 16.5 16.5 13.5 16.5 L 3.5 16.5 C 0.5 16.5 0.5 16.5 0.5 13.5 L 0.5 3.5 C 0.5 0.5 0.5 0.5 3.5 0.5"  stroke="black" stroke-opacity="0.049999999999999996" stroke-width="5" transform="translate(1, 1)"></path><path fill="none" d="M 3.5 0.5 L 13.5 0.5 C 16.5 0.5 16.5 0.5 16.5 3.5 L 16.5 13.5 C 16.5 16.5 16.5 16.5 13.5 16.5 L 3.5 16.5 C 0.5 16.5 0.5 16.5 0.5 13.5 L 0.5 3.5 C 0.5 0.5 0.5 0.5 3.5 0.5"  stroke="black" stroke-opacity="0.09999999999999999" stroke-width="3" transform="translate(1, 1)"></path><path fill="none" d="M 3.5 0.5 L 13.5 0.5 C 16.5 0.5 16.5 0.5 16.5 3.5 L 16.5 13.5 C 16.5 16.5 16.5 16.5 13.5 16.5 L 3.5 16.5 C 0.5 16.5 0.5 16.5 0.5 13.5 L 0.5 3.5 C 0.5 0.5 0.5 0.5 3.5 0.5"  stroke="black" stroke-opacity="0.15" stroke-width="1" transform="translate(1, 1)"></path><path fill="rgb(255, 255, 255)" fill-opacity=" 0.85" d="M 3.5 0.5 L 13.5 0.5 C 16.5 0.5 16.5 0.5 16.5 3.5 L 16.5 13.5 C 16.5 16.5 16.5 16.5 13.5 16.5 L 3.5 16.5 C 0.5 16.5 0.5 16.5 0.5 13.5 L 0.5 3.5 C 0.5 0.5 0.5 0.5 3.5 0.5"></path><text x="8" style="font-size:12px;color:#000000;fill:#000000;" y="20"></text></g><text x="590" text-anchor="end" style="cursor:pointer;color:#909090;font-size:9px;fill:#909090;" y="395">meta-chart.com</text></svg>