<?xml version="1.0" standalone="no"?><!DOCTYPE svg PUBLIC "-//W3C//DTD SVG 1.1//EN" "http://www.w3.org/Graphics/SVG/1.1/DTD/svg11.dtd"><svg xmlns:xlink="http://www.w3.org/1999/xlink" version="1.1" style="font-family:'lucida grande', 'lucida sans unicode', arial, helvetica, sans-serif;font-size:12px;" xmlns="http://www.w3.org/2000/svg" width="600" height="400"><desc>Created with Highcharts 4.2.7</desc><defs><clipPath id="highcharts-6"><rect x="1" y="1" width="549" height="313"></rect></clipPath></defs><rect x="39" y="10" width="551" height="315" fill="#ffffff"></rect><path fill="rgb(255, 255, 255)" fill-opacity=" .5" d="M 39 325.5 L 590 325.5 590 246.5 39 246.5"></path><path fill="rgb(255, 255, 255)" fill-opacity=" .5" d="M 39 168.5 L 590 168.5 590 89.5 39 89.5"></path><g class="highcharts-grid"></g><g class="highcharts-grid"><path fill="none" d="M 39 325.5 L 590 325.5" stroke="#C0C0C0" stroke-width="1" opacity="1"></path><path fill="none" d="M 39 246.5 L 590 246.5" stroke="#C0C0C0" stroke-width="1" opacity="1"></path><path fill="none" d="M 39 168.5 L 590 168.5" stroke="#C0C0C0" stroke-width="1" opacity="1"></path><path fill="none" d="M 39 89.5 L 590 89.5" stroke="#C0C0C0" stroke-width="1" opacity="1"></path><path fill="none" d="M 39 9.5 L 590 9.5" stroke="#C0C0C0" stroke-width="1" opacity="1"></path></g><rect x="39" y="10" width="551" height="315" stroke="#026FC1" stroke-width="2" fill="none"></rect><g class="highcharts-axis"><path fill="none" d="M 130.5 325 L 130.5 335" stroke="#C0D0E0" stroke-width="1" opacity="1"></path><path fill="none" d="M 222.5 325 L 222.5 335" stroke="#C0D0E0" stroke-width="1" opacity="1"></path><path fill="none" d="M 314.5 325 L 314.5 335" stroke="#C0D0E0" stroke-width="1" opacity="1"></path><path fill="none" d="M 405.5 325 L 405.5 335" stroke="#C0D0E0" stroke-width="1" opacity="1"></path><path fill="none" d="M 497.5 325 L 497.5 335" stroke="#C0D0E0" stroke-width="1" opacity="1"></path><path fill="none" d="M 590.5 325 L 590.5 335" stroke="#C0D0E0" stroke-width="1" opacity="1"></path><path fill="none" d="M 38.5 325 L 38.5 335" stroke="#C0D0E0" stroke-width="1" opacity="1"></path><path fill="none" d="M 39 325.5 L 590 325.5" stroke="#C0D0E0" stroke-width="1"></path></g><g class="highcharts-axis"><path fill="none" d="M 39 325.5 L 29 325.5" stroke="#C0D0E0" stroke-width="1" opacity="1"></path><path fill="none" d="M 39 246.5 L 29 246.5" stroke="#C0D0E0" stroke-width="1" opacity="1"></path><path fill="none" d="M 39 168.5 L 29 168.5" stroke="#C0D0E0" stroke-width="1" opacity="1"></path><path fill="none" d="M 39 89.5 L 29 89.5" stroke="#C0D0E0" stroke-width="1" opacity="1"></path><path fill="none" d="M 39 9.5 L 29 9.5" stroke="#C0D0E0" stroke-width="1" opacity="1"></path></g><g class="highcharts-series-group"><g class="highcharts-series highcharts-series-0" transform="translate(39,10) scale(1 1)" clip-path="url(#highcharts-6)"><rect x="23.5" y="308.5" width="45" height="7" stroke="#FFFFFF" stroke-width="1" fill="#50B432" rx="0" ry="0"></rect><rect x="115.5" y="252.5" width="45" height="63" stroke="#FFFFFF" stroke-width="1" fill="#ED561B" rx="0" ry="0"></rect><rect x="207.5" y="76.5" width="45" height="239" stroke="#FFFFFF" stroke-width="1" fill="#DDDF00" rx="0" ry="0"></rect><rect x="298.5" y="77.5" width="45" height="238" stroke="#FFFFFF" stroke-width="1" fill="#24CBE5" rx="0" ry="0"></rect><rect x="390.5" y="65.5" width="45" height="250" stroke="#FFFFFF" stroke-width="1" fill="#64E572" rx="0" ry="0"></rect><rect x="482.5" y="91.5" width="45" height="224" stroke="#FFFFFF" stroke-width="1" fill="#FF9655" rx="0" ry="0"></rect></g><g class="highcharts-markers highcharts-series-0" transform="translate(39,10) scale(1 1)" clip-path="none"></g><g class="highcharts-series highcharts-series-1" transform="translate(39,10) scale(1 1)" clip-path="url(#highcharts-6)"></g><g class="highcharts-markers highcharts-series-1" transform="translate(39,10) scale(1 1)" clip-path="none"></g></g><g class="highcharts-data-labels highcharts-series-0" transform="translate(39,10) scale(1 1)" opacity="1"><g style="cursor:pointer;" transform="translate(28,288)"><text x="5" style="font-size:10px;font-weight:bold;font-family:'arial', sans-serif;color:#000000;text-shadow:0 0 6px #ffffff, 0 0 3px #ffffff;fill:#000000;text-rendering:geometricprecision;" y="15"><tspan>0.017</tspan></text></g><g style="cursor:pointer;" transform="translate(123,232)"><text x="5" style="font-size:10px;font-weight:bold;font-family:'arial', sans-serif;color:#000000;text-shadow:0 0 6px #ffffff, 0 0 3px #ffffff;fill:#000000;text-rendering:geometricprecision;" y="15"><tspan>0.16</tspan></text></g><g style="cursor:pointer;" transform="translate(207,56)"><text x="5" style="font-size:10px;font-weight:bold;font-family:'arial', sans-serif;color:#000000;text-shadow:0 0 6px #ffffff, 0 0 3px #ffffff;fill:#000000;text-rendering:geometricprecision;" y="15"><tspan>0.60695</tspan></text></g><g style="cursor:pointer;" transform="translate(303,57)"><text x="5" style="font-size:10px;font-weight:bold;font-family:'arial', sans-serif;color:#000000;text-shadow:0 0 6px #ffffff, 0 0 3px #ffffff;fill:#000000;text-rendering:geometricprecision;" y="15"><tspan>0.604</tspan></text></g><g style="cursor:pointer;" transform="translate(395,45)"><text x="5" style="font-size:10px;font-weight:bold;font-family:'arial', sans-serif;color:#000000;text-shadow:0 0 6px #ffffff, 0 0 3px #ffffff;fill:#000000;text-rendering:geometricprecision;" y="15"><tspan>0.635</tspan></text></g><g style="cursor:pointer;" transform="translate(490,71)"><text x="5" style="font-size:10px;font-weight:bold;font-family:'arial', sans-serif;color:#000000;text-shadow:0 0 6px #ffffff, 0 0 3px #ffffff;fill:#000000;text-rendering:geometricprecision;" y="15"><tspan>0.57</tspan></text></g></g><g class="highcharts-data-labels highcharts-series-1" transform="translate(39,10) scale(1 1)" opacity="1"></g><g class="highcharts-legend" transform="translate(259,356)"><g><g><g class="highcharts-legend-item" transform="translate(8,3)"><text x="21" style="color:#333;font-size:9pt;font-weight:normal;cursor:pointer;font-family:'lucida grande','lucida sans unicode',arial,helvetica,sans-serif;text-transform:none;fill:#333;" text-anchor="start" y="15"><tspan>Series 1</tspan></text><rect x="0" y="4" width="16" height="12" fill="#CCC"></rect></g></g></g></g><g class="highcharts-axis-labels highcharts-xaxis-labels"><text x="84.91666666666666" style="color:#000000;cursor:default;font-size:10px;font-family:'arial', sans-serif;text-transform:none;font-weight:normal;fill:#000000;" text-anchor="middle" transform="translate(0,0)" y="343" opacity="1"><tspan>w2v means (200)</tspan></text><text x="176.75" style="color:#000000;cursor:default;font-size:10px;font-family:'arial', sans-serif;text-transform:none;font-weight:normal;fill:#000000;" text-anchor="middle" transform="translate(0,0)" y="343" opacity="1"><tspan>w2v means (300)</tspan></text><text x="268.5833333333333" style="color:#000000;cursor:default;font-size:10px;font-family:'arial', sans-serif;text-transform:none;font-weight:normal;fill:#000000;width:91.83333333333333;text-overflow:ellipsis;" text-anchor="middle" transform="translate(0,0)" y="343" opacity="1"><tspan>svm + w2v means…</tspan><title>svm + w2v means(200)</title></text><text x="360.41666666666663" style="color:#000000;cursor:default;font-size:10px;font-family:'arial', sans-serif;text-transform:none;font-weight:normal;fill:#000000;width:91.83333333333333;text-overflow:ellipsis;" text-anchor="middle" transform="translate(0,0)" y="343" opacity="1"><tspan>svm + w2v means…</tspan><title>svm + w2v means(300)</title></text><text x="452.25" style="color:#000000;cursor:default;font-size:10px;font-family:'arial', sans-serif;text-transform:none;font-weight:normal;fill:#000000;" text-anchor="middle" transform="translate(0,0)" y="343" opacity="1">svm</text><text x="544.0833333333334" style="color:#000000;cursor:default;font-size:10px;font-family:'arial', sans-serif;text-transform:none;font-weight:normal;fill:#000000;width:91.83333333333329;text-overflow:ellipsis;" text-anchor="middle" transform="translate(0,0)" y="343" opacity="1"><tspan>svm + tfidf_w2v(3…</tspan><title>svm + tfidf_w2v(300)</title></text></g><g class="highcharts-axis-labels highcharts-yaxis-labels"><text x="24" style="color:#000000;cursor:default;font-size:10px;font-family:'arial', sans-serif;text-transform:none;font-weight:normal;fill:#000000;width:188px;text-overflow:clip;" text-anchor="end" transform="translate(0,0)" y="330" opacity="1"><tspan>0</tspan></text><text x="24" style="color:#000000;cursor:default;font-size:10px;font-family:'arial', sans-serif;text-transform:none;font-weight:normal;fill:#000000;width:188px;text-overflow:clip;" text-anchor="end" transform="translate(0,0)" y="251" opacity="1"><tspan>0.2</tspan></text><text x="24" style="color:#000000;cursor:default;font-size:10px;font-family:'arial', sans-serif;text-transform:none;font-weight:normal;fill:#000000;width:188px;text-overflow:clip;" text-anchor="end" transform="translate(0,0)" y="172" opacity="1"><tspan>0.4</tspan></text><text x="24" style="color:#000000;cursor:default;font-size:10px;font-family:'arial', sans-serif;text-transform:none;font-weight:normal;fill:#000000;width:188px;text-overflow:clip;" text-anchor="end" transform="translate(0,0)" y="93" opacity="1"><tspan>0.6</tspan></text><text x="24" style="color:#000000;cursor:default;font-size:10px;font-family:'arial', sans-serif;text-transform:none;font-weight:normal;fill:#000000;width:188px;text-overflow:clip;" text-anchor="end" transform="translate(0,0)" y="15" opacity="1"><tspan>0.8</tspan></text></g><g class="highcharts-tooltip" display="none" style="cursor:default;padding:0;pointer-events:none;white-space:nowrap;" transform="translate(0,0)"><path fill="none" d="M 3.5 0.5 L 13.5 0.5 C 16.5 0.5 16.5 0.5 16.5 3.5 L 16.5 13.5 C 16.5 16.5 16.5 16.5 13.5 16.5 L 3.5 16.5 C 0.5 16.5 0.5 16.5 0.5 13.5 L 0.5 3.5 C 0.5 0.5 0.5 0.5 3.5 0.5"  stroke="black" stroke-opacity="0.049999999999999996" stroke-width="5" transform="translate(1, 1)"></path><path fill="none" d="M 3.5 0.5 L 13.5 0.5 C 16.5 0.5 16.5 0.5 16.5 3.5 L 16.5 13.5 C 16.5 16.5 16.5 16.5 13.5 16.5 L 3.5 16.5 C 0.5 16.5 0.5 16.5 0.5 13.5 L 0.5 3.5 C 0.5 0.5 0.5 0.5 3.5 0.5"  stroke="black" stroke-opacity="0.09999999999999999" stroke-width="3" transform="translate(1, 1)"></path><path fill="none" d="M 3.5 0.5 L 13.5 0.5 C 16.5 0.5 16.5 0.5 16.5 3.5 L 16.5 13.5 C 16.5 16.5 16.5 16.5 13.5 16.5 L 3.5 16.5 C 0.5 16.5 0.5 16.5 0.5 13.5 L 0.5 3.5 C 0.5 0.5 0.5 0.5 3.5 0.5"  stroke="black" stroke-opacity="0.15" stroke-width="1" transform="translate(1, 1)"></path><path fill="rgb(255, 255, 255)" fill-opacity=" 0.85" d="M 3.5 0.5 L 13.5 0.5 C 16.5 0.5 16.5 0.5 16.5 3.5 L 16.5 13.5 C 16.5 16.5 16.5 16.5 13.5 16.5 L 3.5 16.5 C 0.5 16.5 0.5 16.5 0.5 13.5 L 0.5 3.5 C 0.5 0.5 0.5 0.5 3.5 0.5"></path><text x="8" style="font-size:12px;color:#000000;fill:#000000;" y="20"></text></g><text x="590" text-anchor="end" style="cursor:pointer;color:#909090;font-size:9px;fill:#909090;" y="395">meta-chart.com</text></svg>